<svg width="800" height="420" viewBox="0 0 800 420" fill="none" xmlns="http://www.w3.org/2000/svg">
  <rect width="800" height="420" fill="#09090B"/>
  <rect x="32" y="28" width="736" height="364" rx="28" fill="#111827" stroke="#1F2937" stroke-width="2"/>
  <path d="M82 116C82 88.3858 104.386 66 132 66H668C695.614 66 718 88.3858 718 116V330C718 343.255 707.255 354 694 354H106C92.7452 354 82 343.255 82 330V116Z" fill="#0B1120" stroke="#243244" stroke-width="2"/>
  <rect x="112" y="96" width="236" height="228" rx="18" fill="#111827" stroke="#334155"/>
  <rect x="136" y="124" width="152" height="12" rx="6" fill="#38BDF8"/>
  <rect x="136" y="154" width="178" height="10" rx="5" fill="#475569"/>
  <rect x="136" y="180" width="142" height="10" rx="5" fill="#475569"/>
  <rect x="136" y="206" width="188" height="10" rx="5" fill="#475569"/>
  <rect x="136" y="244" width="76" height="28" rx="14" fill="#064E3B"/>
  <rect x="224" y="244" width="82" height="28" rx="14" fill="#422006"/>
  <path d="M520 102L618 142V214C618 278 575 315 520 336C465 315 422 278 422 214V142L520 102Z" fill="#0F172A" stroke="#38BDF8" stroke-width="6" stroke-linejoin="round"/>
  <path d="M483 211L510 238L561 179" stroke="#22C55E" stroke-width="14" stroke-linecap="round" stroke-linejoin="round"/>
  <path d="M348 212H421" stroke="#38BDF8" stroke-width="4" stroke-dasharray="10 10"/>
  <path d="M325 276H436" stroke="#F59E0B" stroke-width="4" stroke-dasharray="8 9"/>
  <circle cx="348" cy="212" r="8" fill="#38BDF8"/>
  <circle cx="436" cy="276" r="8" fill="#F59E0B"/>
  <text x="112" y="376" fill="#F8FAFC" font-family="Inter, Arial, sans-serif" font-size="34" font-weight="800">Claude Security</text>
  <text x="420" y="376" fill="#7DD3FC" font-family="Inter, Arial, sans-serif" font-size="24" font-weight="700">scan -> validate -> patch</text>
  <rect x="589" y="72" width="104" height="34" rx="17" fill="#082F49" stroke="#38BDF8"/>
  <text x="611" y="95" fill="#BAE6FD" font-family="Inter, Arial, sans-serif" font-size="15" font-weight="700">Public beta</text>
</svg>
