<svg width="1200" height="630" viewBox="0 0 1200 630" fill="none" xmlns="http://www.w3.org/2000/svg">
<rect width="1200" height="630" fill="#09090B"/>
<circle cx="1030" cy="110" r="220" fill="#2563EB" fill-opacity="0.18"/>
<circle cx="180" cy="560" r="240" fill="#1D4ED8" fill-opacity="0.12"/>
<rect x="58" y="58" width="1084" height="514" rx="32" fill="url(#g1)" stroke="#27272A"/>
<rect x="86" y="88" width="220" height="44" rx="22" fill="#172554"/>
<text x="112" y="117" fill="#93C5FD" font-size="24" font-family="Inter, Arial, sans-serif" font-weight="700">Stablecoin Policy</text>
<text x="88" y="212" fill="#FAFAFA" font-size="58" font-family="Inter, Arial, sans-serif" font-weight="800">FDIC viết luật cho</text>
<text x="88" y="282" fill="#60A5FA" font-size="58" font-family="Inter, Arial, sans-serif" font-weight="800">stablecoin</text>
<text x="88" y="362" fill="#A1A1AA" font-size="28" font-family="Inter, Arial, sans-serif" font-weight="500">Crypto không còn đứng ngoài cửa ngân hàng Mỹ.</text>
<text x="88" y="404" fill="#A1A1AA" font-size="28" font-family="Inter, Arial, sans-serif" font-weight="500">Một bước dịch chuyển từ vùng xám sang hạ tầng tài chính.</text>
<rect x="88" y="464" width="328" height="58" rx="18" fill="#FAFAFA"/>
<text x="121" y="502" fill="#09090B" font-size="28" font-family="Inter, Arial, sans-serif" font-weight="800">Escbase · Phân tích nhanh</text>
<g opacity="0.9">
<rect x="840" y="180" width="210" height="132" rx="20" fill="#111827" stroke="#3B82F6"/>
<rect x="875" y="214" width="140" height="18" rx="9" fill="#60A5FA" fill-opacity="0.8"/>
<rect x="875" y="246" width="104" height="14" rx="7" fill="#A1A1AA" fill-opacity="0.6"/>
<rect x="875" y="274" width="120" height="14" rx="7" fill="#A1A1AA" fill-opacity="0.45"/>
<path d="M820 390C860 334 932 328 975 360C1011 386 1064 387 1108 360" stroke="#60A5FA" stroke-width="10" stroke-linecap="round"/>
<circle cx="842" cy="392" r="10" fill="#60A5FA"/>
<circle cx="975" cy="360" r="10" fill="#60A5FA"/>
<circle cx="1108" cy="360" r="10" fill="#60A5FA"/>
</g>
<defs>
<linearGradient id="g1" x1="80" y1="70" x2="1080" y2="560" gradientUnits="userSpaceOnUse">
<stop stop-color="#111827"/>
<stop offset="1" stop-color="#0F172A"/>
</linearGradient>
</defs>
</svg>